<mxfile host="app.diagrams.net" modified="2023-07-11T12:38:31.990Z" agent="Mozilla/5.0 (X11; Ubuntu; Linux x86_64; rv:109.0) Gecko/20100101 Firefox/114.0" version="21.3.7" etag="poO1frMr1Y2rnH2wrFag" type="github">
  <diagram name="Page-1" id="P6LYfCY9kD-1MTEmgkZY">
    <mxGraphModel>
      <root>
        <mxCell id="0" />
        <mxCell id="1" parent="0" />
      </root>
    </mxGraphModel>
  </diagram>
</mxfile>
